<?xml version="1.0" encoding="UTF-8"?><svg id="Layer_1" xmlns="http://www.w3.org/2000/svg" viewBox="0 0 300 300"><defs><style>.cls-1{fill:#fff;}</style></defs><path class="cls-1" d="m194.98,190.14h-90v-81h90v81Zm-2.32-40.88c-7.11-12.29-14.09-24.36-20.88-36.09h-42.14c-6.97,12.06-13.86,24-20.83,36.07,7.1,12.27,13.93,24.08,20.75,35.87h42.38c6.78-11.73,13.53-23.41,20.73-35.85Z"/><path d="m192.66,149.26c-7.19,12.44-13.94,24.11-20.73,35.85h-42.38c-6.82-11.79-13.65-23.59-20.75-35.87,6.97-12.08,13.87-24.01,20.83-36.07h42.14c6.79,11.74,13.77,23.8,20.88,36.09Zm-4.92.47c-7.16-.68-13.29-1.44-19.45-1.73-1.3-.06-3.06,1.31-3.96,2.5-6.58,8.67-13.01,17.46-19.45,26.24-.32.44-.24,1.16-.41,2.09h26.5c5.37-9.32,10.76-18.68,16.78-29.11Zm-18.33-32.67c-8.2,6.44-15.87,12.46-24.78,19.46,13.39,1.46,25.25,2.75,38.53,4.2-5.03-8.66-9.2-15.83-13.75-23.65Zm-51.99,25.44c8.04,5.5,15.39,10.53,22.75,15.55.42-.33.84-.67,1.26-1-4.55-10.33-9.1-20.67-14.07-31.98-3.58,6.29-6.56,11.51-9.93,17.43Zm24.19,24.43c-8.27-5.76-15.91-11.07-23.55-16.39-.3.26-.6.52-.9.78,5.21,8.92,10.42,17.85,15.95,27.31,3.01-4.14,5.5-7.57,8.5-11.7Zm-8.59-49.66c2.48,5.48,4.52,10,6.82,15.1,6.5-5.13,12.31-9.73,19.1-15.1h-25.93Zm12.61,28.33c1.7,3.95,2.9,6.75,4.44,10.34,2.33-3.31,4.06-5.75,6.6-9.36-4.06-.36-6.91-.61-11.04-.98Z"/><path class="cls-1" d="m187.73,149.72c-6.01,10.43-11.41,19.79-16.78,29.11h-26.5c.17-.93.09-1.66.41-2.09,6.44-8.78,12.87-17.57,19.45-26.24.91-1.2,2.66-2.57,3.96-2.5,6.16.29,12.29,1.04,19.45,1.73Z"/><path class="cls-1" d="m169.4,117.06c4.55,7.83,8.72,15,13.75,23.65-13.27-1.45-25.13-2.74-38.53-4.2,8.91-7,16.58-13.02,24.78-19.46Z"/><path class="cls-1" d="m117.41,142.5c3.37-5.92,6.35-11.14,9.93-17.43,4.98,11.31,9.52,21.65,14.07,31.98-.42.33-.84.67-1.26,1-7.35-5.03-14.7-10.05-22.75-15.55Z"/><path class="cls-1" d="m141.6,166.93c-3,4.13-5.49,7.55-8.5,11.7-5.52-9.46-10.74-18.38-15.95-27.31.3-.26.6-.52.9-.78,7.64,5.32,15.28,10.63,23.55,16.39Z"/><path class="cls-1" d="m133.01,117.27h25.93c-6.79,5.37-12.61,9.96-19.1,15.1-2.3-5.09-4.35-9.62-6.82-15.1Z"/><path class="cls-1" d="m145.62,145.59c4.12.37,6.98.62,11.04.98-2.54,3.61-4.27,6.05-6.6,9.36-1.54-3.58-2.74-6.38-4.44-10.34Z"/></svg>