<?xml version="1.0" encoding="utf-8"?>
<!-- Generator: Adobe Illustrator 27.2.0, SVG Export Plug-In . SVG Version: 6.00 Build 0)  -->
<svg version="1.1" id="Layer_1" xmlns="http://www.w3.org/2000/svg" xmlns:xlink="http://www.w3.org/1999/xlink" x="0px" y="0px"
	 viewBox="0 0 1129.7 139.5" style="enable-background:new 0 0 1129.7 139.5;" xml:space="preserve">
<style type="text/css">
	.st0{fill:#C4405E;}
	.st1{fill:#261E1F;}
</style>
<path class="st0" d="M1076.5,9.2H53.2C51,32.4,32.5,50.9,9.3,53.1v33.3c23.2,2.2,41.7,20.7,43.9,43.9h1023.3
	c2.2-23.2,20.7-41.7,43.9-43.9V53.1C1097.2,50.9,1078.7,32.4,1076.5,9.2z"/>
<path class="st1" d="M1125,44.1c-1.6,0-3.1-0.1-4.6-0.3c-18.1-2.1-32.5-16.5-34.6-34.6c-0.2-1.5-0.3-3.1-0.3-4.6s0.1-3.1,0.3-4.6
	H43.8c0.2,1.5,0.3,3,0.3,4.6S44,7.7,43.8,9.2C41.7,27.3,27.4,41.7,9.2,43.8c-1.5,0.2-3.1,0.3-4.6,0.3S1.5,44,0,43.8v51.9
	c1.5-0.2,3-0.3,4.6-0.3s3.1,0.1,4.6,0.3c18.1,2.1,32.5,16.5,34.6,34.6c0.2,1.5,0.3,3.1,0.3,4.6s-0.1,3.1-0.3,4.6h1042
	c-0.2-1.5-0.3-3.1-0.3-4.6s0.1-3.1,0.3-4.6c2.1-18.1,16.5-32.5,34.6-34.6c1.5-0.2,3.1-0.3,4.6-0.3s3.1,0.1,4.6,0.3V43.8
	C1128.1,44,1126.6,44.1,1125,44.1L1125,44.1z M1120.4,86.4c-23.2,2.2-41.7,20.7-43.9,43.9H53.2C51,107.1,32.5,88.6,9.3,86.4V53.1
	C32.5,50.9,51,32.4,53.2,9.2h1023.3c2.2,23.2,20.7,41.7,43.9,43.9C1120.4,53.1,1120.4,86.4,1120.4,86.4z"/>
</svg>
